<?xml version="1.0" standalone="no"?>
<!DOCTYPE svg PUBLIC "-//W3C//DTD SVG 20010904//EN"
 "http://www.w3.org/TR/2001/REC-SVG-20010904/DTD/svg10.dtd">
<svg version="1.0" xmlns="http://www.w3.org/2000/svg"
 width="1024.000000pt" height="1024.000000pt" viewBox="0 0 1024.000000 1024.000000"
 preserveAspectRatio="xMidYMid meet">

<g transform="translate(0.000000,1024.000000) scale(0.100000,-0.100000)"
fill="#000000" stroke="none">
<path d="M4126 9181 c-56 -45 -111 -119 -141 -191 -25 -59 -27 -72 -21 -148 5
-76 9 -89 44 -141 27 -39 57 -67 98 -92 68 -40 169 -79 208 -79 14 0 26 -6 26
-12 -1 -27 -40 -99 -57 -105 -46 -16 -180 -84 -198 -100 -11 -10 -41 -36 -67
-57 -27 -21 -48 -45 -48 -52 0 -18 -1 -18 61 11 29 13 55 23 57 21 2 -2 -13
-26 -33 -52 -30 -39 -36 -54 -32 -80 5 -29 0 -38 -43 -78 -27 -26 -82 -61
-122 -80 -40 -18 -85 -45 -99 -60 -32 -32 -44 -66 -23 -66 8 0 14 3 14 8 0 14
64 43 109 48 l46 6 -50 -25 c-27 -13 -57 -33 -66 -43 -22 -26 -31 -54 -17 -54
7 0 7 -4 -1 -13 -7 -9 -7 -17 -1 -23 7 -7 5 -23 -5 -48 -31 -74 8 -101 102
-72 30 10 57 16 59 13 2 -2 -17 -24 -44 -49 -46 -43 -51 -45 -127 -52 -167
-15 -280 -67 -376 -175 -110 -122 -155 -242 -145 -379 l6 -83 -78 -77 c-138
-136 -186 -245 -183 -421 1 -123 -5 -137 -101 -223 -75 -66 -145 -193 -163
-293 -4 -22 -11 -47 -15 -55 -4 -8 -11 -47 -15 -87 -4 -40 -8 -85 -10 -100 -2
-15 -5 -50 -6 -78 -1 -34 -15 -78 -41 -135 -33 -72 -40 -98 -44 -170 -11 -196
-28 -227 -38 -72 -10 138 -16 188 -33 267 -8 39 -16 87 -17 107 0 20 -4 40 -9
44 -4 4 -7 35 -7 70 0 75 -6 94 -30 94 -27 0 -30 10 -40 108 -17 173 -23 363
-22 662 1 168 -2 359 -8 425 -11 132 -33 378 -55 610 -7 83 -15 176 -16 209
l-3 59 51 18 c99 38 150 136 159 309 8 149 -17 269 -90 425 -56 120 -86 143
-51 41 39 -115 52 -378 26 -514 -12 -62 -44 -112 -71 -112 -27 0 -77 80 -95
153 -4 15 -11 29 -15 32 -9 6 -30 -104 -30 -157 0 -50 -19 -63 -64 -44 -24 10
-42 28 -57 58 -58 113 -95 398 -70 542 7 38 10 70 8 72 -16 16 -64 -122 -82
-235 -9 -52 -9 -242 0 -291 29 -171 125 -292 234 -294 69 -1 63 20 101 -338 5
-51 12 -127 15 -168 3 -41 10 -115 14 -165 5 -49 9 -304 10 -566 1 -263 4
-488 6 -500 2 -13 6 -89 10 -169 3 -80 9 -155 12 -168 4 -16 -2 -31 -16 -46
-20 -22 -21 -25 -6 -66 8 -23 15 -50 15 -60 0 -10 9 -46 20 -80 30 -93 28
-103 -26 -125 -43 -18 -93 -66 -101 -97 -17 -71 -18 -97 -5 -138 7 -25 11 -61
9 -80 -2 -19 2 -52 10 -74 7 -22 12 -73 11 -121 -1 -45 2 -87 7 -94 12 -21 87
-51 128 -51 21 0 51 7 68 15 35 18 27 31 70 -130 43 -166 61 -189 118 -149 19
14 27 14 47 3 21 -11 32 -10 72 4 26 8 67 19 92 23 44 7 54 9 93 12 17 2 30
25 94 170 47 107 38 223 -23 286 -28 29 -42 36 -74 36 l-39 0 118 121 c81 83
124 120 134 116 9 -3 60 -13 114 -23 191 -32 686 -159 718 -184 6 -4 26 -11
45 -15 19 -4 54 -16 77 -26 23 -11 45 -19 48 -19 4 0 38 -19 77 -42 l71 -42
-27 -21 c-14 -11 -26 -26 -26 -32 0 -7 -16 -29 -35 -50 -19 -21 -35 -42 -35
-46 0 -5 19 -6 41 -2 47 8 47 7 -8 -61 -39 -49 -41 -64 -9 -64 l25 0 -26 -62
c-43 -108 -42 -223 2 -138 9 17 17 30 18 30 1 0 1 -96 -1 -214 -3 -166 -1
-237 12 -313 21 -122 58 -245 97 -318 21 -39 27 -61 21 -73 -5 -9 -17 -48 -27
-85 -27 -103 -80 -145 -239 -191 -51 -15 -99 -38 -116 -56 -3 -3 -24 -18 -48
-34 -59 -40 -126 -116 -166 -190 -44 -80 -54 -112 -70 -237 -25 -190 -49 -253
-159 -424 -62 -95 -69 -104 -128 -169 -26 -28 -50 -66 -54 -83 -6 -32 -25 -52
-96 -103 -37 -27 -98 -86 -169 -165 -25 -28 -66 -65 -92 -82 -43 -29 -48 -36
-48 -71 0 -64 64 -110 200 -145 223 -57 480 -86 513 -58 31 25 12 121 -27 139
-22 10 -25 19 -32 99 -5 48 -7 95 -6 103 1 8 8 67 15 132 16 137 18 142 167
284 129 125 143 135 240 184 47 24 108 58 136 76 68 44 152 137 187 206 49 96
93 278 82 335 l-6 36 -35 -52 c-38 -56 -64 -113 -95 -205 -61 -179 -124 -251
-294 -336 -102 -51 -119 -64 -224 -169 -62 -63 -131 -139 -152 -168 -22 -29
-45 -53 -52 -53 -20 0 -67 54 -67 76 0 11 23 51 51 89 113 156 155 257 204
500 57 279 122 360 402 500 202 102 206 106 221 230 7 55 15 101 17 104 3 2
12 -4 20 -15 14 -18 14 -17 15 11 0 52 -11 76 -30 70 -15 -5 -22 6 -39 62 -11
37 -30 124 -42 193 -18 108 -20 154 -17 335 4 178 8 222 27 290 31 111 74 194
126 245 l45 44 -1 -44 c0 -25 -4 -71 -8 -103 -4 -32 -4 -60 -1 -62 4 -3 19 18
34 45 34 62 42 67 66 38 29 -35 97 -174 124 -253 24 -72 27 -156 11 -259 -16
-97 49 50 75 170 l14 62 37 -47 c87 -109 169 -310 169 -414 0 -72 -32 -172
-88 -277 -24 -47 -57 -107 -71 -135 -42 -79 -38 -76 -79 -52 -29 17 -53 22
-107 22 -64 0 -74 -3 -117 -35 -47 -36 -77 -83 -98 -155 -6 -22 -15 -49 -20
-60 -5 -11 -14 -36 -20 -56 -6 -20 -20 -45 -30 -54 -26 -23 -25 -34 3 -44 18
-7 29 -2 56 25 27 26 40 32 61 27 25 -5 28 -2 33 34 4 22 16 48 27 58 26 24
25 33 -5 41 -36 9 -49 37 -35 78 30 93 148 148 201 95 19 -19 20 -29 15 -90
-5 -66 -27 -129 -45 -129 -4 0 -1 31 7 69 22 101 5 129 -19 31 -10 -41 -18
-87 -19 -102 0 -21 -11 -34 -50 -59 -27 -18 -50 -37 -50 -43 -1 -6 -23 -42
-50 -81 -69 -97 -41 -101 54 -6 39 38 96 90 126 113 63 50 106 123 114 193 5
38 21 66 98 168 122 159 167 226 200 290 l27 52 0 -74 1 -74 35 36 c25 26 40
56 57 114 21 74 24 96 27 218 l2 50 18 -46 c10 -26 34 -73 54 -106 20 -32 41
-71 46 -86 15 -38 30 -34 49 13 20 48 28 50 37 10 4 -17 13 -30 21 -30 11 0
14 17 14 73 0 45 5 80 14 92 7 11 19 37 25 58 15 45 31 48 31 5 0 -17 9 -50
19 -72 11 -23 26 -57 34 -76 16 -40 140 -195 201 -253 23 -21 86 -78 140 -125
112 -98 202 -201 214 -247 5 -16 5 -61 1 -100 -12 -104 -11 -297 2 -357 30
-142 151 -305 269 -360 212 -99 228 -108 276 -161 68 -75 76 -85 187 -248 35
-52 87 -127 116 -166 51 -70 88 -167 106 -281 4 -23 17 -55 30 -70 23 -27 109
-62 154 -62 13 0 25 -9 30 -24 14 -36 37 -38 101 -11 33 14 69 25 81 25 73 0
340 92 373 129 13 14 13 21 -3 56 -10 22 -33 56 -51 74 -32 32 -37 33 -90 28
-57 -5 -57 -5 -121 49 -57 49 -202 129 -269 149 -41 12 -86 52 -112 97 -14 24
-43 72 -65 108 -111 180 -192 370 -224 525 -7 33 -14 65 -15 70 -1 6 -7 33
-13 60 -29 127 -89 244 -188 370 -13 17 -27 35 -31 40 -4 6 -23 37 -42 70
l-35 60 2 135 c3 128 1 136 -22 171 -13 20 -38 43 -54 50 -17 8 -31 17 -31 21
0 3 -13 9 -30 13 -16 4 -32 10 -35 14 -2 4 11 53 29 107 55 162 70 236 63 325
-12 147 -46 243 -135 379 -67 101 -167 236 -183 246 -8 5 -8 8 0 14 17 10 5
32 -34 60 -19 14 -42 35 -50 48 -14 20 -14 22 3 22 10 0 26 6 37 14 17 12 17
13 -7 19 -14 4 -47 29 -74 57 -27 28 -59 53 -71 56 -29 8 -29 10 4 38 l26 23
-57 37 c-31 21 -62 46 -69 55 -6 9 -31 32 -55 51 l-42 33 1 141 c1 153 -1 162
-68 325 -31 74 -35 95 -36 182 -1 55 1 99 4 99 3 0 15 17 27 39 25 43 28 100
8 146 -11 26 -10 34 6 60 10 17 18 45 18 63 0 47 29 42 65 -12 48 -70 170
-211 212 -243 51 -41 102 -65 203 -99 156 -51 178 -84 183 -265 2 -102 5 -120
31 -174 35 -72 163 -203 250 -255 142 -85 238 -154 300 -217 68 -68 166 -203
166 -228 0 -7 -18 -40 -40 -73 -46 -69 -50 -103 -20 -184 10 -29 24 -72 30
-94 9 -39 14 -43 62 -59 28 -9 72 -34 98 -56 47 -40 86 -49 108 -27 9 9 15 9
24 0 7 -7 33 -12 59 -12 41 0 51 4 78 35 17 20 31 40 31 44 0 5 24 20 53 34
28 13 62 36 75 49 l23 25 -32 79 c-21 52 -31 94 -30 122 2 37 -3 48 -31 74
-44 41 -94 72 -142 88 -22 7 -58 22 -80 34 -41 21 -55 47 -133 232 -23 54 -63
197 -105 369 -5 22 -13 44 -19 50 -5 5 -9 15 -9 23 0 37 -100 259 -164 364
-39 65 -75 126 -81 136 -33 59 -56 79 -111 96 -50 16 -70 30 -136 100 -62 64
-88 100 -123 174 -24 50 -49 98 -54 105 -44 56 -104 115 -160 156 -91 68 -96
79 -82 183 16 109 -2 200 -62 311 -65 123 -152 198 -269 232 -89 26 -159 92
-165 155 -4 44 -13 71 -37 109 -18 28 -21 42 -14 55 21 37 -8 168 -43 196 -14
12 -29 51 -29 78 0 24 6 32 30 40 49 18 50 52 0 147 -46 89 -47 119 -4 135 32
13 30 23 -14 78 -21 26 -54 72 -73 102 -18 30 -37 57 -41 58 -17 8 -7 41 17
56 17 12 25 25 24 44 0 15 2 55 5 88 5 53 2 66 -17 95 -15 23 -35 37 -60 43
-47 12 -47 22 0 33 23 5 39 15 41 26 3 14 -5 17 -44 17 -52 0 -114 -31 -114
-58 0 -9 -7 -26 -15 -36 -12 -16 -15 -17 -15 -4 0 9 -13 27 -30 41 -29 25
-117 64 -125 55 -2 -2 2 -16 10 -31 13 -25 4 -40 -10 -17 -9 14 -64 38 -115
49 -145 33 -490 -30 -490 -89 0 -4 26 -11 58 -17 l57 -10 -66 -2 c-51 -1 -79
-8 -126 -31 -61 -30 -101 -65 -90 -76 4 -4 20 -1 36 5 34 15 83 11 88 -6 3 -7
-8 -15 -23 -19 -15 -4 -39 -13 -53 -20 -66 -35 -183 8 -268 99 -29 31 -53 62
-53 70 0 8 -9 22 -20 32 -20 18 -20 17 -20 -11 0 -36 33 -99 81 -153 43 -48
216 -134 252 -126 35 8 50 -8 42 -44 -9 -40 -18 -45 -54 -27 -26 14 -30 14
-35 0 -4 -11 -14 -13 -43 -8 -21 4 -42 9 -48 12 -5 4 -27 7 -48 8 -21 1 -46 9
-56 18 -11 10 -25 16 -33 14 -25 -5 -78 24 -78 43 0 13 -7 19 -24 19 -21 0
-24 6 -31 63 -21 165 -5 248 66 338 46 58 34 67 -25 20z m1251 -446 c26 -9 53
-13 60 -11 8 3 11 1 8 -4 -3 -6 3 -10 14 -10 12 0 21 -4 21 -8 0 -4 13 -12 29
-18 19 -8 47 -40 90 -104 33 -52 61 -97 61 -101 0 -7 -35 -22 -77 -34 -13 -3
-40 2 -67 15 -25 11 -49 20 -53 20 -4 0 -20 6 -35 14 -23 12 -114 36 -138 36
-5 0 -21 -20 -35 -43 -41 -71 -30 -98 22 -57 41 32 132 20 153 -20 9 -17 5
-18 -49 -13 -76 7 -111 -1 -111 -27 0 -30 28 -40 66 -24 39 16 94 18 94 4 0
-6 -15 -9 -32 -8 -27 3 -34 -1 -36 -19 -2 -16 5 -26 26 -37 28 -14 32 -14 71
12 22 14 44 35 47 44 3 10 11 18 17 18 7 0 25 7 42 16 16 8 31 11 32 7 2 -5
26 -40 53 -77 28 -38 50 -78 50 -89 0 -18 -5 -19 -65 -15 -36 3 -68 2 -71 -3
-3 -5 -14 -9 -25 -9 -18 0 -20 4 -14 30 13 59 -51 26 -85 -43 -11 -23 -32 -64
-46 -92 -22 -41 -25 -56 -18 -85 7 -28 5 -43 -11 -72 -11 -21 -23 -38 -27 -38
-13 0 -9 35 5 49 10 11 9 13 -5 8 -13 -5 -20 5 -33 42 -8 26 -13 55 -10 63 4
9 2 19 -4 22 -18 11 -40 -49 -38 -102 3 -81 -15 -84 -52 -8 -18 35 -41 72 -51
81 -18 16 -19 16 -27 -15 -9 -32 -9 -32 -32 33 -18 53 -20 70 -11 87 8 15 8
30 0 54 -6 19 -8 45 -5 59 4 14 2 28 -5 32 -8 5 -8 10 0 20 6 7 12 42 13 78 2
62 4 66 34 82 17 10 46 31 63 49 31 29 32 33 25 86 -11 81 -9 93 21 116 15 12
24 26 21 32 -8 12 65 -1 130 -23z m-633 -209 c29 -12 86 -71 86 -90 0 -3 11
-24 25 -45 37 -55 42 -122 15 -194 l-22 -59 -23 22 c-18 17 -30 20 -53 16 -20
-5 -33 -2 -42 9 -7 8 -18 15 -25 15 -31 0 -102 130 -108 200 -5 49 14 107 40
128 22 16 66 15 107 -2z m104 -21 c-3 -3 -9 2 -12 12 -6 14 -5 15 5 6 7 -7 10
-15 7 -18z m682 -385 c0 -23 28 -27 36 -5 7 18 43 20 50 2 7 -19 -23 -83 -43
-93 -34 -15 -138 -32 -147 -24 -16 15 4 79 35 110 36 35 69 40 69 10z m-740
-56 c39 -16 49 -31 31 -49 -13 -14 -41 -127 -41 -167 0 -33 27 -128 39 -138 3
-3 13 -18 21 -35 8 -16 27 -43 42 -59 28 -31 56 -101 78 -196 7 -30 21 -67 32
-82 11 -16 17 -28 14 -28 -3 0 1 -20 8 -44 10 -32 10 -48 3 -55 -8 -8 -8 -11
0 -11 6 0 23 -26 38 -57 l27 -58 29 57 c16 32 41 65 54 74 25 16 27 16 51 -7
36 -34 72 -116 79 -179 7 -59 18 -73 51 -65 13 3 28 -3 40 -16 45 -50 84 -44
104 16 6 19 15 35 20 35 9 0 28 -45 32 -78 l3 -24 28 22 c15 12 34 35 42 51 9
16 24 29 34 29 12 0 28 19 47 58 26 52 29 66 29 160 0 113 7 124 46 65 29 -46
45 -44 41 2 -2 26 1 35 12 35 20 0 39 -20 102 -110 46 -66 68 -86 147 -137
108 -70 124 -93 111 -160 l-9 -48 -46 -3 c-41 -3 -49 0 -72 28 -14 16 -29 30
-34 31 -4 0 -28 16 -53 34 -25 19 -58 42 -75 51 -29 17 -30 17 -15 -2 8 -10
31 -38 52 -61 46 -51 48 -80 13 -163 -14 -33 -25 -65 -25 -71 0 -18 -52 -131
-72 -158 -25 -32 -91 -61 -140 -61 -46 0 -238 37 -253 49 -5 5 -26 13 -45 20
-88 28 -152 118 -165 231 -11 97 -66 263 -81 247 -2 -2 3 -44 12 -93 9 -49 17
-137 19 -197 3 -107 3 -107 -29 -146 -39 -49 -70 -74 -121 -95 -53 -23 -277
-48 -405 -47 -119 2 -289 25 -337 47 -17 8 -35 14 -41 14 -10 0 -98 47 -117
62 -5 5 -32 23 -60 41 -27 17 -81 62 -119 98 l-68 67 22 40 c12 22 51 75 85
118 35 44 61 81 59 83 -2 2 -45 -34 -95 -79 -77 -69 -113 -93 -216 -142 -75
-36 -130 -69 -139 -84 -27 -40 -116 -26 -128 20 -11 39 -6 111 9 140 21 40 8
47 -21 11 -29 -37 -38 -78 -31 -152 5 -52 3 -58 -24 -85 -28 -28 -49 -60 -49
-73 0 -3 15 5 33 19 44 33 51 33 43 -4 l-6 -31 43 29 c57 40 114 68 163 81 23
6 47 18 54 26 13 16 35 21 26 6 -3 -5 -8 -57 -12 -117 -10 -173 -60 -305 -151
-402 -51 -54 -147 -105 -218 -116 -22 -4 -46 -11 -54 -15 -14 -9 -17 -108 -6
-185 11 -76 12 -161 3 -236 -11 -91 -63 -196 -137 -273 -27 -29 -73 -83 -102
-122 -28 -38 -84 -104 -125 -145 l-73 -74 -36 17 c-39 18 -81 22 -89 8 -7 -11
27 -34 74 -50 67 -22 74 -33 60 -90 -7 -28 -18 -51 -24 -51 -46 0 -133 25
-147 43 -9 11 -23 18 -31 14 -8 -3 -21 -1 -29 5 -11 8 -10 9 4 4 23 -7 22 9
-4 46 -21 28 -21 33 -9 146 17 174 27 223 59 288 36 76 39 85 46 174 17 204
58 378 108 456 51 82 75 79 37 -5 -22 -47 -26 -81 -10 -81 6 0 10 4 10 10 0 5
11 34 25 64 14 30 25 61 25 69 0 8 10 25 21 38 12 13 38 47 59 74 l38 50 5
120 c3 66 7 129 10 140 13 49 37 106 62 145 32 51 122 143 135 138 5 -2 19
-19 32 -38 21 -32 91 -70 104 -58 3 3 -9 29 -26 58 -66 112 -83 250 -45 363
62 185 239 325 409 327 l29 0 -29 -22 c-56 -44 -90 -104 -82 -145 2 -13 11 -4
30 29 34 56 71 88 143 122 30 15 70 41 87 59 96 95 223 159 378 192 19 4 40
11 45 14 6 4 31 15 57 25 62 23 150 81 220 144 l56 52 -20 -67 c-20 -66 -79
-168 -132 -227 -30 -34 -31 -36 -12 -36 27 0 101 90 129 158 46 110 57 143 57
176 0 32 49 155 62 156 4 0 26 -7 48 -16z m868 -21 c5 -18 -23 -16 -39 3 -11
14 -10 15 11 12 13 -1 25 -9 28 -15z m32 -77 c0 -22 -13 -26 -54 -19 -37 6
-38 17 -1 26 38 9 55 7 55 -7z m-147 -23 c4 -4 -4 -18 -17 -32 -33 -35 -37
-65 -24 -187 l12 -104 -42 -82 c-24 -44 -45 -101 -49 -125 -3 -23 -10 -43 -14
-43 -18 0 -8 86 21 171 l30 90 -25 59 c-29 68 -33 152 -10 196 19 37 100 76
118 57z m63 -59 c4 -14 3 -54 -1 -87 -5 -34 -8 -78 -8 -99 1 -61 24 -178 34
-172 19 12 7 -19 -35 -87 -24 -38 -46 -67 -49 -62 -2 4 -8 23 -12 42 l-7 35
-13 -25 c-7 -13 -16 -44 -19 -69 -12 -80 -17 -100 -26 -100 -11 0 -24 62 -23
107 1 31 45 116 83 158 29 32 39 104 23 161 -23 81 -26 184 -6 206 24 26 51
23 59 -8z m-676 -3 c-5 -11 -10 -44 -11 -73 l0 -53 -15 54 c-13 49 -13 56 2
73 22 24 38 23 24 -1z m120 -54 c0 -7 -9 -18 -20 -25 -11 -7 -20 -19 -20 -28
0 -9 -5 -14 -12 -12 -20 7 -19 24 2 51 22 28 50 36 50 14z m364 -151 c13 -26
13 -33 -1 -70 -18 -43 -44 -85 -54 -86 -4 0 -9 12 -12 28 -3 15 -10 47 -17 71
-6 24 -9 51 -7 60 3 15 10 -4 35 -99 l9 -35 12 28 c15 39 14 88 -4 130 -8 20
-15 53 -14 74 l0 38 19 -55 c10 -31 26 -69 34 -84z m-149 92 c-3 -18 -9 -52
-12 -75 -5 -43 -23 -60 -23 -23 0 24 -22 26 -40 5 -7 -8 -18 -32 -26 -52 -9
-25 -13 -31 -14 -17 0 12 21 52 46 90 25 37 46 76 47 86 1 10 8 18 15 18 11 0
13 -8 7 -32z m464 -60 c-1 -48 -2 -50 -10 -23 -9 28 -5 75 6 75 3 0 5 -24 4
-52z m-70 -16 c0 -35 -3 -42 -9 -27 -12 28 -12 88 0 80 6 -3 10 -27 9 -53z
m-360 -145 c13 -34 13 -37 2 -37 -14 0 -43 109 -35 129 5 11 9 4 15 -24 4 -22
12 -53 18 -68z m-52 21 c-2 -13 -4 -3 -4 22 0 25 2 35 4 23 2 -13 2 -33 0 -45z
m494 8 c12 -13 12 -46 0 -46 -5 0 -11 14 -15 31 -7 37 -6 75 1 44 3 -11 9 -24
14 -29z m279 -135 c30 -14 73 -44 96 -68 44 -45 107 -165 123 -234 25 -105 1
-242 -28 -166 -13 32 -69 83 -140 126 -70 44 -96 72 -106 121 -4 19 -13 45
-21 57 -8 12 -14 33 -14 46 0 13 -7 47 -16 76 -26 89 -9 96 106 42z m-590 -85
c0 -3 -4 -8 -10 -11 -5 -3 -10 -1 -10 4 0 6 5 11 10 11 6 0 10 -2 10 -4z m0
-68 c0 -25 -3 -29 -10 -18 -13 20 -13 50 0 50 6 0 10 -15 10 -32z m851 -487
c174 -126 197 -151 261 -282 62 -129 122 -345 111 -403 -10 -50 65 -214 137
-301 63 -75 201 -187 215 -173 2 2 -29 32 -70 67 -41 34 -75 66 -75 69 0 4
-10 18 -22 32 -24 26 -62 81 -95 140 -26 45 -38 122 -23 150 9 17 8 24 -3 33
-19 15 -36 74 -43 152 l-6 60 49 -47 c26 -25 73 -57 103 -71 62 -27 72 -39
160 -192 95 -165 120 -220 200 -435 5 -14 19 -72 30 -130 12 -57 30 -130 40
-160 15 -44 102 -236 149 -330 4 -8 21 -19 37 -25 16 -5 50 -22 76 -37 26 -14
63 -31 82 -38 58 -19 95 -60 95 -106 0 -21 11 -68 25 -103 14 -36 26 -66 26
-67 0 -13 -37 -34 -59 -34 -30 0 -59 -26 -85 -77 -21 -43 -42 -52 -96 -44
l-45 7 30 14 c51 24 64 41 76 102 7 33 18 62 25 64 47 14 47 14 34 29 -36 44
-100 -8 -100 -81 0 -31 -7 -51 -24 -70 l-24 -28 -7 34 c-4 19 -11 40 -16 46
-14 18 13 85 38 95 13 5 23 15 23 24 0 8 15 21 34 29 34 14 64 51 49 59 -19
10 -109 4 -127 -9 -29 -20 -69 -17 -84 6 -7 11 -17 20 -22 20 -12 0 -90 -74
-90 -86 0 -4 18 -35 41 -67 l41 -58 -22 -24 c-16 -17 -27 -21 -39 -15 -9 5
-23 11 -31 13 -8 2 -30 45 -49 95 -38 104 -36 127 25 206 18 24 34 56 34 70 0
55 -174 278 -280 361 -28 22 -129 85 -136 85 -17 0 -180 119 -225 165 -83 84
-109 142 -114 262 -3 54 -10 120 -16 146 -6 26 -10 50 -8 52 2 2 16 1 31 -2
23 -4 30 -13 38 -47 33 -134 79 -246 103 -246 5 0 7 3 5 8 -58 114 -60 120
-65 260 -6 144 -10 164 -37 168 -31 4 -211 112 -266 160 -69 58 -112 118 -157
214 -46 99 -50 108 -64 155 -6 22 -15 44 -20 50 -14 14 111 124 142 125 14 0
49 -17 80 -39z m-2331 -259 c0 -26 51 -103 90 -135 46 -39 119 -74 187 -91
160 -40 183 -49 183 -72 0 -8 -5 -12 -11 -9 -14 9 -160 45 -183 45 -27 0 -3
-26 32 -35 15 -4 60 -22 102 -41 68 -32 76 -33 87 -18 11 15 17 13 69 -20 32
-19 59 -34 61 -33 1 2 -2 18 -7 36 l-9 33 47 -7 c26 -4 51 -8 56 -8 21 -4 14
21 -10 32 -31 14 -126 92 -120 99 3 2 44 4 92 3 77 -1 85 0 74 14 -11 13 -8
15 16 15 47 1 263 53 311 75 17 8 34 15 38 15 4 0 45 23 92 50 81 48 87 50
104 34 11 -9 23 -33 29 -52 8 -29 6 -40 -7 -54 -9 -10 -21 -18 -26 -18 -12 0
-57 -40 -57 -51 0 -3 20 -4 44 -2 38 5 48 2 70 -20 20 -20 26 -36 26 -69 l0
-43 -66 -13 c-96 -18 -184 -44 -184 -54 0 -19 39 -20 142 -3 82 13 112 15 120
7 16 -16 15 -117 -1 -135 -15 -19 -68 -28 -172 -32 -44 -1 -116 -9 -160 -16
-77 -12 -83 -12 -122 8 -23 12 -66 32 -95 44 -29 12 -57 29 -62 38 -7 13 -11
14 -21 4 -7 -7 -22 -13 -33 -13 -29 0 -11 -14 74 -59 76 -39 110 -79 110 -128
0 -19 -5 -23 -30 -23 -38 0 -38 -15 -1 -34 16 -9 38 -28 49 -43 20 -28 21 -28
36 -8 14 19 16 19 59 -30 25 -27 48 -47 53 -42 4 4 -16 31 -44 60 -55 56 -80
110 -61 133 6 8 36 26 68 41 54 27 63 28 214 29 177 2 173 4 141 -74 -14 -37
-35 -55 -79 -66 -91 -23 -105 -28 -105 -41 0 -12 17 -15 87 -15 60 0 91 -4
102 -14 27 -24 91 -25 91 -1 0 19 21 19 63 2 21 -9 42 -11 64 -5 48 12 48 25
1 32 -59 10 -140 36 -157 52 -14 13 -19 119 -6 132 9 9 198 -28 221 -43 55
-36 128 -182 140 -280 17 -132 2 -236 -42 -306 -26 -41 -50 -53 -39 -19 11 35
-19 22 -69 -30 -26 -27 -54 -50 -62 -50 -7 0 -21 11 -30 25 -22 33 -36 31 -55
-8 -20 -40 -48 -45 -101 -17 -38 20 -43 20 -54 6 -15 -21 -26 -20 -71 6 -117
68 -193 139 -193 181 0 7 -17 47 -39 88 -21 41 -46 98 -55 126 -10 29 -22 55
-27 59 -20 12 16 -148 47 -206 18 -35 50 -110 59 -140 4 -14 15 -33 24 -44 15
-17 15 -18 -4 -13 -11 3 -42 9 -70 13 -27 5 -52 9 -55 9 -3 1 -25 5 -50 9
-134 23 -305 81 -330 111 -13 15 -11 63 6 253 6 61 3 75 -25 143 -35 84 -55
106 -151 169 -36 23 -84 63 -107 89 -23 26 -63 58 -89 72 -27 13 -54 29 -61
34 -6 6 -28 21 -47 35 -32 23 -126 162 -126 187 0 6 -6 16 -14 22 -22 18 -29
68 -16 102 14 32 30 39 30 11z m-129 -58 c34 -64 135 -217 180 -275 15 -19 63
-59 106 -89 43 -29 80 -56 83 -59 19 -24 125 -103 173 -130 55 -31 96 -74 111
-116 13 -36 7 -248 -9 -305 -18 -67 -19 -132 -3 -148 9 -9 2 -22 -32 -58 -29
-30 -40 -48 -32 -51 9 -3 5 -19 -15 -56 -16 -29 -28 -53 -28 -54 -1 -3 -86 26
-120 41 -16 7 -66 26 -110 41 -44 15 -93 33 -110 40 -16 7 -46 16 -65 20 -19
4 -39 11 -45 15 -5 4 -39 13 -75 20 -36 7 -69 16 -75 20 -16 12 -292 79 -375
91 l-76 11 23 71 c28 85 32 194 13 334 -17 125 -1 163 80 188 185 56 299 202
340 435 12 64 18 85 26 78 2 -2 18 -31 35 -64z m1634 -9 c61 -21 141 -48 180
-60 38 -13 74 -30 79 -38 15 -24 -1 -47 -33 -47 -36 0 -47 -13 -25 -30 8 -7
24 -26 35 -42 18 -25 19 -33 9 -63 -7 -20 -29 -49 -51 -67 -43 -34 -42 -48 1
-48 23 0 31 -5 36 -25 8 -33 -3 -74 -22 -82 -9 -3 -72 2 -140 12 l-125 18 3
66 3 65 59 18 c70 21 105 47 82 60 -8 4 -25 4 -38 -1 -13 -4 -44 -11 -71 -15
-45 -7 -48 -6 -58 20 -5 15 -9 44 -7 63 3 29 8 36 35 45 54 18 58 31 15 44
-49 15 -68 36 -93 102 -19 49 -19 52 -2 47 10 -3 68 -22 128 -42z m647 -73
c20 -15 70 -56 111 -92 41 -36 116 -87 166 -113 84 -45 92 -51 89 -75 -4 -36
-28 -38 -138 -12 -177 41 -315 163 -294 258 16 73 14 72 66 34z m-3666 -738
c7 -27 -7 -50 -25 -40 -12 8 -15 49 -4 59 13 13 23 7 29 -19z m8 -93 c7 -10
-53 -51 -74 -51 -24 0 -3 24 28 32 18 5 32 13 32 18 0 13 7 13 14 1z m0 -73
c3 -7 7 -32 10 -55 6 -38 4 -43 -14 -43 -12 0 -20 7 -21 18 0 9 -2 30 -4 46
-2 16 -2 33 1 38 8 12 24 10 28 -4z m35 -191 l1 -48 -32 5 c-40 7 -85 10 -115
8 -16 -2 -23 -8 -23 -22 0 -16 5 -19 28 -14 42 7 105 -33 113 -74 6 -32 5 -34
-44 -58 -28 -13 -56 -24 -63 -24 -6 0 -22 -9 -35 -21 l-24 -20 45 5 c25 3 59
11 75 19 58 29 72 29 79 5 8 -33 7 -101 -2 -116 -5 -7 -40 -20 -78 -30 -52
-13 -70 -22 -72 -36 -4 -17 1 -18 50 -13 30 4 68 10 86 13 29 6 32 4 32 -20 0
-36 -25 -58 -93 -80 -55 -19 -59 -19 -93 -2 l-36 17 5 55 c3 31 -1 80 -9 114
-7 32 -13 74 -12 92 1 18 -5 51 -12 72 -19 59 -8 131 25 166 34 36 84 60 122
60 16 0 38 6 49 14 17 13 20 13 26 -2 4 -9 7 -39 7 -65z m112 -359 c8 -15 6
-18 -11 -18 -16 0 -20 6 -20 33 0 33 4 31 31 -15z m394 -38 c36 -41 38 -133 4
-204 -10 -22 -19 -43 -19 -47 0 -4 -5 -20 -12 -36 -6 -15 -12 -32 -12 -38 -3
-22 -18 -55 -24 -53 -21 5 -184 -27 -193 -39 -19 -22 -43 -15 -62 18 -13 24
-15 35 -6 45 9 11 8 14 -5 14 -10 0 -16 -8 -16 -23 0 -13 -9 -32 -19 -41 -19
-17 -20 -17 -31 23 -6 23 -8 46 -5 52 4 5 2 15 -3 22 -6 7 -13 49 -17 94 -6
68 -5 87 9 107 18 29 42 31 260 26 37 0 71 1 74 4 3 4 5 33 5 66 l0 59 29 -17
c16 -9 35 -24 43 -32z m3303 -260 c63 -80 146 -225 171 -299 14 -40 24 -100
27 -160 5 -85 2 -109 -25 -206 -60 -221 -60 -223 -144 -308 -75 -77 -76 -78
-57 -97 26 -26 49 -72 58 -117 7 -31 12 -37 30 -35 16 2 23 -3 27 -25 19 -87
40 -154 51 -163 18 -16 28 5 14 30 -12 23 -22 99 -14 112 3 5 18 1 34 -9 16
-9 32 -14 36 -10 20 20 -69 137 -117 152 -23 8 -58 80 -51 107 8 31 85 108
108 108 25 0 107 -51 126 -78 11 -17 14 -63 11 -244 -3 -203 -1 -231 19 -310
12 -49 25 -88 28 -88 4 0 5 56 2 125 -3 89 -1 125 7 125 6 0 11 -4 11 -8 0 -4
25 -46 56 -92 109 -165 167 -305 189 -460 22 -151 163 -509 238 -604 28 -35
32 -48 32 -97 -1 -52 -15 -89 -35 -89 -4 0 -25 12 -48 27 -45 31 -54 43 -196
253 -97 144 -172 233 -211 251 -11 5 -27 13 -35 19 -8 5 -46 24 -85 42 -89 40
-119 61 -176 122 -49 51 -85 115 -116 206 -15 45 -18 86 -18 227 0 94 3 174 7
178 10 10 73 -36 95 -69 30 -45 108 -178 170 -286 51 -89 106 -160 125 -160 5
0 -9 24 -31 53 -21 28 -66 104 -98 167 -112 216 -149 274 -223 341 -39 35 -72
71 -75 80 -11 35 -123 162 -185 210 -93 72 -205 184 -232 232 -19 36 -23 55
-21 132 0 56 7 103 16 125 l15 35 2 -30 c0 -16 9 -48 20 -70 11 -22 19 -46 20
-53 0 -27 20 1 20 29 0 44 28 174 45 206 8 15 15 36 15 46 0 11 7 31 15 45 8
15 24 53 36 86 l21 58 30 -46 c32 -49 53 -61 40 -23 -5 12 -6 33 -4 47 2 14 7
68 11 120 l6 95 22 -28 c12 -16 25 -38 28 -48 4 -11 12 -18 18 -16 18 6 28 93
21 187 l-6 84 43 -39 c24 -22 64 -64 87 -95z m1142 -153 c21 -37 2 -57 -36
-36 -35 18 -42 39 -19 56 24 17 36 13 55 -20z m371 -2777 c30 -17 23 -33 -11
-25 -19 4 -30 3 -30 -4 0 -6 10 -11 23 -11 31 0 69 -40 57 -60 -7 -12 -11 -12
-28 3 -26 24 -32 21 -32 -14 0 -26 -3 -29 -20 -24 -12 4 -26 0 -36 -9 -26 -26
-42 -18 -68 35 -15 28 -26 54 -26 59 0 9 61 36 73 32 4 -1 15 4 23 13 18 17
47 19 75 5z m-4698 -83 c21 -8 14 -50 -14 -80 -14 -15 -21 -17 -38 -8 -25 14
-25 13 -7 56 17 41 6 46 -22 10 -35 -44 -73 -23 -48 26 7 14 21 24 33 24 12 0
25 3 29 8 4 4 17 -1 28 -11 12 -11 29 -22 39 -25z m4538 -46 c17 -39 16 -39
-8 -50 -33 -15 -57 -7 -71 25 -19 41 -15 57 13 52 14 -3 25 -1 25 3 0 24 27 4
41 -30z m-4477 4 c16 -12 17 -18 8 -27 -7 -7 -12 -20 -12 -30 0 -19 -8 -22
-34 -12 -19 7 -20 24 -4 59 13 29 16 30 42 10z m4377 -27 c35 -43 18 -61 -35
-36 -21 9 -29 8 -43 -4 -10 -9 -28 -19 -40 -22 -20 -7 -23 -4 -23 22 0 33 18
45 54 36 14 -3 27 1 35 10 18 22 29 20 52 -6z m-4296 -8 c8 0 11 -7 8 -20 -6
-23 15 -28 23 -5 4 8 12 15 20 15 8 0 14 -7 14 -15 0 -18 5 -19 29 -3 26 16
48 4 56 -32 4 -17 5 -33 3 -35 -9 -8 -108 20 -108 32 0 16 -15 17 -40 1 -23
-15 -71 6 -64 28 2 8 6 21 9 30 3 10 11 14 21 10 9 -3 22 -6 29 -6z m225 -54
c0 -13 3 -31 6 -40 10 -27 -34 -19 -52 9 -21 32 -12 55 21 55 20 0 25 -5 25
-24z m151 -15 c8 -20 7 -28 -8 -38 -9 -7 -22 -12 -28 -10 -10 4 -17 52 -10 74
6 20 35 3 46 -26z m-79 -7 c5 -42 -7 -53 -33 -28 -22 23 -15 64 11 64 13 0 19
-10 22 -36z"/>
<path d="M5297 8695 c28 -39 203 -96 203 -66 0 5 -30 19 -67 31 -38 12 -82 30
-99 41 -44 27 -59 24 -37 -6z"/>
<path d="M4652 8493 c2 -10 22 -28 46 -41 l42 -24 -25 -30 c-36 -43 -19 -93
49 -147 70 -56 105 -32 41 28 -41 38 -43 46 -14 61 18 10 20 17 14 53 -9 50
-17 62 -67 93 -46 29 -91 32 -86 7z"/>
<path d="M4651 7599 c-17 -45 -19 -98 -6 -166 10 -51 10 -70 1 -76 -6 -4 -40
-5 -76 -2 -36 4 -87 8 -115 11 -27 2 -92 9 -142 16 -71 9 -99 9 -118 0 -40
-19 -74 -14 -107 13 -31 26 -68 33 -68 14 0 -6 14 -27 30 -46 17 -18 30 -38
30 -44 0 -5 12 -3 28 5 29 15 58 7 75 -21 11 -19 31 -16 53 8 17 19 25 20 109
14 156 -12 177 -12 254 2 41 7 85 10 99 6 14 -3 23 -2 20 3 -34 70 -40 96 -43
182 -4 101 -9 119 -24 81z"/>
<path d="M4380 7560 c-19 -10 -64 -26 -100 -35 -36 -10 -74 -21 -85 -25 -11
-5 -28 -11 -38 -14 -10 -3 -15 -11 -12 -17 16 -26 223 41 265 86 28 30 18 31
-30 5z"/>
<path d="M4833 7398 c3 -18 8 -41 12 -50 5 -13 0 -19 -19 -24 -14 -3 -30 -12
-36 -19 -12 -15 -3 -19 65 -31 22 -3 56 -16 75 -28 47 -30 65 -24 45 15 -9 16
-26 36 -39 44 -12 8 -40 40 -61 70 -20 30 -40 55 -43 55 -2 0 -2 -15 1 -32z"/>
<path d="M3975 7136 c-55 -52 -97 -97 -94 -100 8 -8 175 148 190 176 5 10 8
18 7 18 -2 0 -48 -43 -103 -94z"/>
<path d="M5793 6643 c-16 -6 -17 -45 -2 -60 25 -25 82 27 64 57 -6 10 -41 12
-62 3z"/>
<path d="M4576 6594 c-23 -22 -20 -60 6 -78 33 -24 64 -19 100 13 29 26 31 31
20 55 -10 23 -17 26 -61 26 -32 0 -55 -6 -65 -16z m74 -18 c0 -8 -4 -18 -10
-21 -5 -3 -10 3 -10 14 0 12 5 21 10 21 6 0 10 -6 10 -14z"/>
<path d="M3188 6176 c-36 -27 -51 -93 -68 -306 -5 -74 -16 -134 -29 -168 -41
-103 -12 -87 40 24 20 41 31 83 35 130 6 71 21 117 36 108 4 -3 8 1 8 9 0 8
14 41 31 75 36 70 34 99 -9 123 -22 12 -32 13 -44 5z"/>
<path d="M2912 5550 c0 -8 4 -26 8 -40 6 -20 8 -21 8 -5 0 11 -3 29 -8 40 -5
12 -8 14 -8 5z"/>
<path d="M5547 7508 c-6 -17 3 -81 13 -91 11 -13 22 46 14 77 -7 28 -19 34
-27 14z"/>
<path d="M6815 5591 c5 -8 104 -81 144 -105 22 -14 1 15 -28 39 -65 53 -132
90 -116 66z"/>
<path d="M4905 6311 c-65 -10 -103 -36 -111 -76 -9 -48 -1 -61 40 -69 19 -4
43 -17 53 -30 17 -22 89 -46 81 -27 -7 18 -100 91 -124 97 -13 3 -24 11 -24
18 1 16 89 56 138 63 23 3 42 9 42 13 0 9 -27 21 -43 18 -7 0 -30 -4 -52 -7z"/>
<path d="M4580 6060 c0 -5 7 -10 15 -10 8 0 15 5 15 10 0 6 -7 10 -15 10 -8 0
-15 -4 -15 -10z"/>
<path d="M4506 5988 c21 -38 57 -78 70 -78 23 0 17 13 -24 53 -38 37 -60 48
-46 25z"/>
<path d="M5332 5528 c3 -7 22 -16 44 -19 21 -3 52 -10 67 -14 26 -7 28 -5 25
15 -3 21 -9 24 -71 27 -52 3 -68 0 -65 -9z"/>
<path d="M2314 5205 c-10 -25 9 -37 31 -21 18 13 18 14 -3 25 -18 10 -23 9
-28 -4z"/>
<path d="M2660 4765 c-54 -22 -86 -55 -40 -40 48 15 110 46 110 55 0 13 -6 12
-70 -15z"/>
<path d="M2683 4688 c-57 -16 -73 -25 -73 -39 0 -23 0 -23 36 -5 16 8 66 20
112 28 47 7 81 17 79 23 -6 17 -79 14 -154 -7z"/>
<path d="M2782 4601 c-23 -4 -50 -15 -60 -25 -16 -17 -15 -17 23 -10 22 3 44
9 50 12 11 7 18 8 85 10 33 2 41 5 30 12 -17 11 -63 11 -128 1z"/>
<path d="M6490 3525 c0 -35 4 -54 10 -50 6 3 10 26 10 50 0 24 -4 47 -10 50
-6 4 -10 -15 -10 -50z"/>
<path d="M6755 2678 c9 -30 43 -86 74 -123 32 -39 21 -11 -29 76 -42 71 -57
86 -45 47z"/>
<path d="M7690 1669 c0 -15 49 -61 61 -57 13 5 -31 68 -47 68 -8 0 -14 -5 -14
-11z"/>
<path d="M4226 3150 c-31 -47 -46 -105 -26 -98 13 4 65 127 57 135 -2 2 -16
-15 -31 -37z"/>
<path d="M4030 2927 c-32 -25 -71 -87 -91 -142 -27 -76 -18 -81 16 -8 15 32
39 76 54 98 48 71 49 75 21 52z"/>
</g>
</svg>
